<svg xmlns="http://www.w3.org/2000/svg" viewBox="0 0 64 64" role="img" aria-label="BrokerCrediteSibiu">
  <defs>
    <linearGradient id="bg" x1="0" y1="0" x2="1" y2="1">
      <stop offset="0" stop-color="#0f1f5c"/>
      <stop offset="1" stop-color="#2563eb"/>
    </linearGradient>
  </defs>
  <rect width="64" height="64" rx="14" fill="url(#bg)"/>
  <path d="M20 44V20h15.2c6 0 9.8 3.1 9.8 8 0 3.1-1.4 5.3-3.9 6.6 3.1 1.2 4.9 3.6 4.9 7 0 5.2-4 8.4-10.6 8.4H20zm8.1-14.6h6c2.2 0 3.5-1 3.5-2.8 0-1.7-1.3-2.7-3.5-2.7h-6v5.5zm0 15.3h6.7c2.5 0 3.9-1.1 3.9-3.1 0-2-1.4-3.1-3.9-3.1h-6.7v6.2z"
        fill="#ffffff"/>
</svg>
