<svg width="976" height="410" viewBox="0 0 976 410" fill="none" xmlns="http://www.w3.org/2000/svg">
<path fill-rule="evenodd" clip-rule="evenodd" d="M470.157 201.484V309.146H489.019V297.604C490.35 299.381 491.88 301.03 493.61 302.552C496.837 305.39 500.648 307.615 505.044 309.229C509.44 310.843 514.364 311.65 519.817 311.65C525.881 311.65 531.446 310.565 536.509 308.394C541.628 306.224 546.051 303.164 549.779 299.213C553.507 295.262 556.4 290.587 558.459 285.19C560.518 279.736 561.547 273.81 561.547 267.41C561.547 259.175 559.767 251.718 556.206 245.04C552.645 238.307 547.693 232.993 541.35 229.097C535.007 225.146 527.718 223.171 519.483 223.171C512.305 223.171 505.99 224.673 500.537 227.678C497.182 229.512 494.15 231.786 491.44 234.501V201.484H470.157ZM515.894 292.952C520.568 292.952 524.741 291.923 528.413 289.864C532.141 287.749 535.062 284.8 537.177 281.016C539.291 277.176 540.348 272.641 540.348 267.41C540.348 262.18 539.291 257.644 537.177 253.805C535.062 249.965 532.169 247.016 528.497 244.957C524.824 242.898 520.623 241.868 515.894 241.868C511.164 241.868 506.936 242.898 503.208 244.957C499.535 247.016 496.642 249.965 494.528 253.805C492.469 257.644 491.44 262.18 491.44 267.41C491.44 272.641 492.497 277.176 494.611 281.016C496.726 284.8 499.619 287.749 503.291 289.864C506.964 291.923 511.164 292.952 515.894 292.952Z" fill="#202428"/>
<path fill-rule="evenodd" clip-rule="evenodd" d="M583.148 181.266C589.992 184.939 597.948 186.775 607.018 186.775C610.968 186.775 615.086 186.358 619.37 185.523C623.71 184.689 627.828 183.492 631.722 181.934C635.326 180.493 638.382 178.813 640.89 176.895L628.73 164.734C626.483 165.914 624.142 166.89 621.707 167.661C617.311 169.052 612.721 169.747 607.936 169.747C602.539 169.747 597.837 168.829 593.831 166.993C589.88 165.101 586.82 162.513 584.65 159.23C582.536 155.947 581.507 152.107 581.562 147.711H646.829C647.942 140.644 647.747 134.133 646.245 128.179C644.798 122.169 642.239 116.938 638.566 112.486C634.95 107.979 630.387 104.501 624.879 102.053C619.37 99.5485 613.111 98.2964 606.1 98.2964C599.645 98.2964 593.692 99.3815 588.239 101.552C582.842 103.722 578.112 106.81 574.051 110.817C570.044 114.768 566.929 119.442 564.703 124.84C562.533 130.238 561.448 136.164 561.448 142.619C561.448 151.412 563.34 159.119 567.123 165.741C570.963 172.363 576.304 177.538 583.148 181.266ZM626.131 132.519H582.814C583.426 126.899 585.791 122.503 589.908 119.331C594.026 116.104 599.256 114.49 605.599 114.49C611.998 114.49 616.978 116.104 620.539 119.331C624.1 122.503 625.964 126.899 626.131 132.519Z" fill="#202428"/>
<path d="M470.157 184.273V100.802H491.523V110.818C494.862 106.422 498.757 103.25 503.208 101.303C507.715 99.2993 512.416 98.2977 517.313 98.2977C524.991 98.2977 531.334 99.828 536.342 102.889C541.405 105.949 545.161 109.872 547.609 114.658C550.057 119.444 551.282 124.452 551.282 129.683V184.273H529.915V136.36C529.915 130.684 528.274 126.177 524.991 122.838C521.708 119.499 517.118 117.83 511.22 117.83C507.381 117.83 503.959 118.692 500.954 120.417C498.005 122.087 495.696 124.452 494.027 127.512C492.358 130.573 491.523 134.107 491.523 138.113V184.273H470.157Z" fill="#202428"/>
<path d="M647.128 184.44L677.257 142.621L648.797 100.802H675.755L692.03 127.596L707.804 100.802H734.095L706.469 142.12L736.348 184.273H708.973L691.279 156.894L673.335 184.106L647.128 184.44Z" fill="#202428"/>
<path d="M832.882 100.802V184.273H854.248V138.113C854.248 134.107 855.082 130.573 856.751 127.512C858.421 124.452 860.73 122.087 863.679 120.417C866.683 118.692 870.105 117.83 873.944 117.83C879.842 117.83 884.433 119.499 887.716 122.838C890.998 126.177 892.64 130.684 892.64 136.36V184.273H914.006V129.683C914.006 124.452 912.782 119.444 910.334 114.658C907.885 109.872 904.13 105.949 899.066 102.889C894.059 99.828 887.716 98.2977 880.037 98.2977C875.141 98.2977 870.439 99.2993 865.932 101.303C861.481 103.25 857.586 106.422 854.248 110.818V100.802H832.882Z" fill="#202428"/>
<path fill-rule="evenodd" clip-rule="evenodd" d="M580.63 308.394C585.026 310.565 590.061 311.65 595.736 311.65C601.857 311.65 607.365 310.62 612.262 308.561C617.158 306.447 620.997 303.47 623.779 299.63V309.146H642.642V256.392C642.642 248.657 641.084 242.286 637.968 237.277C634.908 232.213 628.249 228.457 622.518 226.009C616.842 223.56 610.11 222.336 602.32 222.336C596.867 222.336 591.22 223.087 585.377 224.59C581.734 225.527 577.62 227.077 573.73 229.09L586.664 242.025C587.317 241.788 587.977 241.569 588.642 241.367C592.927 240.032 597.239 239.364 601.579 239.364C606.308 239.364 610.175 240.088 613.18 241.534C616.184 242.926 618.41 244.929 619.857 247.544C621.359 250.104 622.11 253.137 622.11 256.643V258.438C613.472 257.743 605.877 257.756 599.325 258.479C591.814 259.314 585.638 260.955 580.797 263.404C575.956 265.797 572.367 268.829 570.03 272.502C567.693 276.175 566.525 280.348 566.525 285.023C566.525 290.476 567.777 295.206 570.281 299.213C572.785 303.164 576.234 306.224 580.63 308.394ZM622.11 272.298V277.761C622.11 281.378 621.192 284.522 619.356 287.193C617.52 289.808 615.016 291.839 611.845 293.286C608.729 294.733 605.195 295.456 601.245 295.456C596.627 295.456 592.982 294.483 590.311 292.535C587.641 290.532 586.305 287.694 586.305 284.021C586.305 281.573 587.112 279.43 588.726 277.594C590.395 275.757 592.871 274.311 596.154 273.253C599.492 272.196 603.693 271.612 608.756 271.5C612.688 271.414 617.139 271.68 622.11 272.298Z" fill="#202428"/>
<path d="M656.66 225.675H678.026V235.691C681.364 231.295 685.259 228.123 689.711 226.176C694.217 224.172 698.919 223.171 703.816 223.171C711.494 223.171 717.837 224.701 722.845 227.762C727.908 230.822 731.664 234.745 734.112 239.531C736.56 244.317 737.784 249.325 737.784 254.556V309.146H716.418V261.233C716.418 255.557 714.777 251.05 711.494 247.711C708.211 244.372 703.621 242.703 697.723 242.703C693.884 242.703 690.462 243.566 687.457 245.291C684.508 246.96 682.199 249.325 680.53 252.386C678.861 255.446 678.026 258.98 678.026 262.986V309.146H656.66V225.675Z" fill="#202428"/>
<path fill-rule="evenodd" clip-rule="evenodd" d="M781.363 186.775C772.294 186.775 764.337 184.939 757.493 181.266C750.65 177.538 745.308 172.363 741.469 165.741C737.685 159.119 735.793 151.412 735.793 142.619C735.793 136.164 736.878 130.238 739.048 124.84C741.274 119.442 744.39 114.768 748.396 110.817C752.458 106.81 757.187 103.722 762.585 101.552C768.037 99.3815 773.991 98.2964 780.445 98.2964C787.456 98.2964 793.716 99.5485 799.224 102.053C804.732 104.501 809.295 107.979 812.912 112.486C816.584 116.938 819.143 122.169 820.59 128.179C822.092 134.133 822.287 140.644 821.174 147.711H755.908C755.852 152.107 756.881 155.947 758.996 159.23C761.166 162.513 764.226 165.101 768.176 166.993C772.183 168.829 776.884 169.747 782.281 169.747C787.066 169.747 791.657 169.052 796.052 167.661C798.487 166.89 800.829 165.914 803.076 164.734L815.235 176.895C812.727 178.813 809.671 180.493 806.068 181.934C802.173 183.492 798.056 184.689 793.716 185.523C789.431 186.358 785.314 186.775 781.363 186.775ZM757.159 132.519H800.476C800.309 126.899 798.445 122.503 794.884 119.331C791.323 116.104 786.343 114.49 779.944 114.49C773.601 114.49 768.371 116.104 764.254 119.331C760.136 122.503 757.772 126.899 757.159 132.519Z" fill="#202428"/>
<path d="M752.039 309.16V201.538H773.442V255.75L803.323 225.829H830.116L788.32 267.611L829.937 309.159H803.112L774.915 281.011L773.442 282.484V309.16H752.039Z" fill="#202428"/>
<path d="M937.46 184.286L937.459 118.157H919.624V100.783H937.459L937.46 76.6107H958.687L958.687 100.783H975.329V118.157H958.687L958.687 184.286H937.46Z" fill="#202428"/>
<path d="M68.3192 136.659L204.963 -0.000174303L341.608 136.659L269.869 208.406L68.3192 136.659Z" fill="url(#paint0_linear_8_16)"/>
<path d="M341.603 273.34L204.959 410L68.3144 273.34L140.053 201.594L341.603 273.34Z" fill="url(#paint1_linear_8_16)"/>
<path d="M0 205.025L68.3222 136.695C106.055 98.9585 167.233 98.9589 204.966 136.696L273.287 205.025L341.61 136.695L409.932 205.025L340.06 274.904C303.182 311.786 243.392 311.786 206.515 274.904L136.643 205.026L68.3222 273.355L0 205.025Z" fill="#3DDCB6"/>
<defs>
<linearGradient id="paint0_linear_8_16" x1="136.641" y1="68.3297" x2="273.301" y2="204.974" gradientUnits="userSpaceOnUse">
<stop stop-color="#3DDCB6" stop-opacity="0"/>
<stop offset="1" stop-color="#3DDCB6"/>
</linearGradient>
<linearGradient id="paint1_linear_8_16" x1="273.281" y1="341.67" x2="136.621" y2="205.026" gradientUnits="userSpaceOnUse">
<stop stop-color="#3DDCB6" stop-opacity="0"/>
<stop offset="1" stop-color="#3DDCB6"/>
</linearGradient>
</defs>
</svg>
